<svg width="720" height="220" viewBox="0 0 720 220" fill="none" xmlns="http://www.w3.org/2000/svg">
  <rect width="720" height="220" rx="28" fill="#F7F4FB"/>
  <rect x="112" y="74" width="496" height="84" rx="28" fill="#FFFFFF" fill-opacity="0.62"/>
  <rect x="112" y="74" width="496" height="84" rx="28" stroke="#DDD6FE"/>
  <path d="M236 88V144" stroke="#E5E7EB" stroke-width="2"/>
  <path d="M360 88V144" stroke="#E5E7EB" stroke-width="2"/>
  <path d="M484 88V144" stroke="#E5E7EB" stroke-width="2"/>
  <path d="M184 102L172 116L184 130" stroke="#111827" stroke-width="4.5" stroke-linecap="round" stroke-linejoin="round"/>
  <path d="M296 102L308 116L296 130" stroke="#111827" stroke-width="4.5" stroke-linecap="round" stroke-linejoin="round"/>
  <rect x="382" y="92" width="56" height="48" rx="18" fill="#EEF2FF"/>
  <path d="M399 123V111L410 103L421 111V123" stroke="#4338CA" stroke-width="4" stroke-linecap="round" stroke-linejoin="round"/>
  <path d="M405 123V117H415V123" stroke="#4338CA" stroke-width="4" stroke-linecap="round" stroke-linejoin="round"/>
  <path d="M544 106H570M544 116H570M544 126H570" stroke="#111827" stroke-width="4.5" stroke-linecap="round"/>
  <text x="360" y="192" text-anchor="middle" font-family="Arial, sans-serif" font-size="18" fill="#6B7280">Segmented glass bar</text>
</svg>
