<svg width="720" height="220" viewBox="0 0 720 220" fill="none" xmlns="http://www.w3.org/2000/svg">
  <rect width="720" height="220" rx="28" fill="#F7F4FB"/>
  <rect x="130" y="78" width="460" height="76" rx="38" fill="white"/>
  <rect x="130" y="78" width="460" height="76" rx="38" stroke="#E7DFF2"/>
  <circle cx="188" cy="116" r="24" fill="#F3F4F6"/>
  <circle cx="294" cy="116" r="24" fill="#F3F4F6"/>
  <circle cx="400" cy="116" r="24" fill="#111827"/>
  <circle cx="506" cy="116" r="24" fill="#F3F4F6"/>
  <path d="M198 104L186 116L198 128" stroke="#111827" stroke-width="4.5" stroke-linecap="round" stroke-linejoin="round"/>
  <path d="M284 104L296 116L284 128" stroke="#111827" stroke-width="4.5" stroke-linecap="round" stroke-linejoin="round"/>
  <path d="M389 119V109L400 101L411 109V119" stroke="white" stroke-width="4" stroke-linecap="round" stroke-linejoin="round"/>
  <path d="M395 119V113H405V119" stroke="white" stroke-width="4" stroke-linecap="round" stroke-linejoin="round"/>
  <path d="M493 106H519M493 116H519M493 126H519" stroke="#111827" stroke-width="4.5" stroke-linecap="round"/>
  <text x="360" y="192" text-anchor="middle" font-family="Arial, sans-serif" font-size="18" fill="#6B7280">Floating pill bar</text>
</svg>
